<svg xmlns="http://www.w3.org/2000/svg" viewBox="0 0 981.21 887.12"><defs><style>.cls-1{fill:#f8f8f8;}.cls-2{fill:#74d5de;}.cls-3{fill:none;stroke:#fed892;stroke-linecap:round;stroke-miterlimit:10;stroke-width:6px;}.cls-4{fill:#de8e68;}.cls-5{fill:#d37c59;}.cls-6{fill:#ed6e58;}.cls-7{fill:#fed892;}.cls-8{fill:#fff;}.cls-9{fill:#fd8369;}.cls-10{fill:#c7fcff;}</style></defs><title>storefront-colour</title><g id="Layer_2" data-name="Layer 2"><g id="vector"><path class="cls-1" d="M197.65,11.3C92.05,42-3.55,142.11,3.71,240c7,97.87,117.18,193.48,187.13,309.75,69.72,116.5,99.47,253.67,180.54,308.17C452.22,912.41,584.16,884,690.67,827,797,770,877.8,684.64,928,587c50-97.88,69.49-208,37.93-295.91C934.57,203.2,852.36,137.8,772,102.6c-80.62-35-159.42-39.29-256.39-61.09C418.39,19.71,303-19.35,197.65,11.3Z"/><path class="cls-2" d="M0,650.12c0-55,23-63,23-97,0-138,46-161,76-161,57,0,50.6,59.89,64,80,30,45,43,78,43,109,0,126-52,201-96,201C62,782.12,0,714.19,0,650.12Z"/><line class="cls-3" x1="108" y1="560.12" x2="108" y2="865.12"/><line class="cls-3" x1="108" y1="639.12" x2="155" y2="592.12"/><line class="cls-3" x1="108" y1="716.12" x2="66.5" y2="674.62"/><rect class="cls-4" x="185" y="117.12" width="572" height="726"/><rect class="cls-5" x="168.5" y="806.12" width="605" height="37"/><rect class="cls-6" x="249" y="609.12" width="153" height="234"/><rect class="cls-7" x="439" y="609.12" width="282" height="133"/><rect class="cls-7" x="144" y="419.12" width="649" height="15"/><rect class="cls-7" x="144" y="293.12" width="649" height="15"/><rect class="cls-7" x="144" y="92.12" width="649" height="35"/><rect class="cls-7" x="218" y="158.12" width="107" height="135"/><rect class="cls-8" x="223" y="162.42" width="97" height="130.69"/><rect class="cls-7" x="414" y="158.12" width="107" height="135"/><rect class="cls-8" x="419" y="162.42" width="97" height="130.69"/><rect class="cls-7" x="610" y="158.12" width="107" height="135"/><rect class="cls-8" x="615" y="162.42" width="97" height="130.69"/><rect class="cls-6" x="131" y="540.12" width="680" height="26"/><polygon class="cls-9" points="811 540.12 757 434.12 185 434.12 131 540.12 811 540.12"/><rect class="cls-6" x="185" y="434.12" width="18" height="106"/><rect class="cls-6" x="227.62" y="434.12" width="18" height="106"/><rect class="cls-6" x="270.23" y="434.12" width="18" height="106"/><rect class="cls-6" x="312.85" y="434.12" width="18" height="106"/><rect class="cls-6" x="355.46" y="434.12" width="18" height="106"/><rect class="cls-6" x="398.08" y="434.12" width="18" height="106"/><rect class="cls-6" x="440.69" y="434.12" width="18" height="106"/><rect class="cls-6" x="483.31" y="434.12" width="18" height="106"/><rect class="cls-6" x="525.92" y="434.12" width="18" height="106"/><rect class="cls-6" x="568.54" y="434.12" width="18" height="106"/><rect class="cls-6" x="611.15" y="434.12" width="18" height="106"/><rect class="cls-6" x="653.77" y="434.12" width="18" height="106"/><rect class="cls-6" x="696.38" y="434.12" width="18" height="106"/><rect class="cls-6" x="739" y="434.12" width="18" height="106"/><rect class="cls-8" x="448" y="617.12" width="264" height="117"/><polygon class="cls-10" points="320 183.51 223 280.51 223 293.12 227 293.12 320 200.12 320 183.51"/><polygon class="cls-10" points="295 162.12 223 234.12 223 270.72 320 173.72 320 162.12 295 162.12"/><polygon class="cls-10" points="516 183.51 419 280.51 419 293.12 423 293.12 516 200.12 516 183.51"/><polygon class="cls-10" points="491 162.12 419 234.12 419 270.72 516 173.72 516 162.12 491 162.12"/><polygon class="cls-10" points="712 183.51 615 280.51 615 293.12 619 293.12 712 200.12 712 183.51"/><polygon class="cls-10" points="687 162.12 615 234.12 615 270.72 712 173.72 712 162.12 687 162.12"/><rect class="cls-2" x="257" y="617.12" width="137" height="226"/><rect class="cls-6" x="254" y="720.12" width="144" height="6"/><rect class="cls-9" x="757" y="360.12" width="83" height="12"/><circle class="cls-2" cx="860.5" cy="366.12" r="42.5"/><circle class="cls-7" cx="860.5" cy="366.12" r="29.76"/><polygon class="cls-10" points="570.13 617.12 453.13 734.12 531 734.12 648 617.12 570.13 617.12"/><polygon class="cls-10" points="563 734.12 680 617.12 665.13 617.12 548.13 734.12 563 734.12"/><polygon class="cls-10" points="712 617.12 696.13 617.12 579.13 734.12 614 734.12 712 636.12 712 617.12"/></g></g></svg>